<?xml version="1.0" encoding="utf-8"?>
<!-- Generator: Adobe Illustrator 16.0.0, SVG Export Plug-In . SVG Version: 6.00 Build 0)  -->
<!DOCTYPE svg PUBLIC "-//W3C//DTD SVG 1.1//EN" "http://www.w3.org/Graphics/SVG/1.1/DTD/svg11.dtd">
<svg version="1.1" id="Layer_1" xmlns="http://www.w3.org/2000/svg" xmlns:xlink="http://www.w3.org/1999/xlink" x="0px" y="0px"
	 width="127px" height="11px" viewBox="0 0 127 11" enable-background="new 0 0 127 11" xml:space="preserve">
<g>
	<g id="Automattic_logo">
		<g>
			<path fill="#FFFFFF" d="M46.344,0.694c-3.169,0-5.223,2.243-5.223,4.66v0.295c0,2.376,2.054,4.658,5.223,4.658
				c3.182,0,5.236-2.281,5.236-4.658V5.354C51.581,2.937,49.526,0.694,46.344,0.694z M49.888,5.595c0,1.733-1.263,3.304-3.544,3.304
				c-2.282,0-3.531-1.57-3.531-3.304V5.38c0-1.731,1.249-3.274,3.531-3.274c2.281,0,3.544,1.543,3.544,3.274V5.595z M6.052,1.017
				L1.219,9.959h1.772l1.141-2.217h5.25l1.182,2.217h1.8L7.449,1.017H6.052z M4.764,6.521L6.71,2.762l2.014,3.759H4.764z
				 M23.103,6.266c0,1.652-0.872,2.633-2.993,2.633c-2.067,0-3.155-0.979-3.155-2.633V1.017H15.29v5.221
				c0,2.324,1.49,4.068,4.699,4.068c3.37,0,4.793-1.853,4.793-4.068V1.017h-1.679V6.266z M28.541,2.413h3.907v7.546h1.678V2.413
				h3.907V1.016h-9.492V2.413L28.541,2.413z M62.427,7.152l-0.415,0.752l-0.417-0.752l-3.531-6.135h-2.321v8.942h1.637V2.882
				l0.443,0.778l3.706,6.298h0.818l3.747-6.298l0.443-0.778v7.077h1.678V1.017h-2.297L62.427,7.152z M76.391,1.017l-4.834,8.942
				h1.773l1.141-2.217h5.25l1.182,2.217h1.8l-4.914-8.942H76.391z M75.102,6.521l1.947-3.759l2.014,3.759H75.102z M83.883,2.413
				h3.906v7.546h1.68V2.413h3.906V1.016h-9.492V2.413z M96.195,2.413h3.906v7.546h1.678V2.413h3.906V1.016h-9.49V2.413L96.195,2.413
				z M109.82,1.864v8.097h1.652V1.018h-0.711C110.762,1.499,110.492,1.864,109.82,1.864z M121.152,8.898
				c-2.496,0-3.854-1.584-3.854-3.275V5.448c0-1.705,1.345-3.342,3.731-3.342c1.599,0,2.779,0.696,3.587,1.436l1.047-1.061
				c-0.927-0.994-2.646-1.787-4.539-1.787c-3.274,0-5.519,2.282-5.519,4.7V5.69c0,2.416,2.056,4.617,5.438,4.617
				c1.976,0,3.64-0.817,4.619-1.785l-1.009-1.061C123.879,8.186,122.643,8.898,121.152,8.898z M47.449,3.806
				C47.147,3.61,46.743,3.7,46.546,4.003l-1.53,2.368c-0.197,0.309-0.11,0.713,0.19,0.908c0.303,0.195,0.707,0.106,0.904-0.197
				l1.53-2.372C47.837,4.407,47.752,4,47.449,3.806z"/>
		</g>
	</g>
</g>
</svg>
