<svg id="Layer_1" data-name="Layer 1" xmlns="http://www.w3.org/2000/svg" viewBox="0 0 111.82 24"><defs><style>.cls-1{fill:#fff;}</style></defs><title>wpcom-svg-final_word</title><path class="cls-1" d="M35.73,9.08a7.32,7.32,0,0,0-1.51-.19c-2.77,0-4.28,1.85-4.28,4.55s1.51,3.92,3.29,3.92a4.42,4.42,0,0,0,2.6-1v.75h1.9V5.79h-2Zm0,5.76a2.85,2.85,0,0,1-1.9.92c-1.1,0-1.82-.73-1.82-2.44s.88-2.82,2.41-2.82a3.73,3.73,0,0,1,1.31.25ZM109.28,8.9a5.44,5.44,0,0,0-2.75,1.1l-.24.15a2.25,2.25,0,0,0-2.2-1.25,5.37,5.37,0,0,0-2.75,1V9.1h-1.9v8.06h2V11.38a4.3,4.3,0,0,1,2.12-.8c.66,0,1.07.36,1.07,1.49v5.09h2V11.39a4.34,4.34,0,0,1,2.12-.81c.66,0,1.07.36,1.07,1.49v5.09h2V11.6a2.47,2.47,0,0,0-2.23-2.69ZM12.66,5.79,10.39,14.5,8.09,5.79H5.84l.53,1.87-2,7.14L2.2,5.8H0L3.09,17.17h2.4l1.85-6.08,1.75,6.08h2.4L14.73,5.79ZM93.74,8.9c-2.77,0-4.07,1.78-4.07,4.24s1.31,4.23,4.07,4.23,4.07-1.77,4.07-4.23S96.49,8.9,93.74,8.9Zm0,6.86c-1.31,0-2-.85-2-2.61s.7-2.61,2-2.61,2,.85,2,2.61S95.09,15.76,93.74,15.76ZM18.55,8.9c-2.77,0-4.07,1.78-4.07,4.24s1.31,4.23,4.07,4.23,4.07-1.77,4.07-4.23S21.3,8.9,18.55,8.9Zm0,6.86c-1.31,0-2-.85-2-2.61s.7-2.61,2-2.61,2,.85,2,2.61S19.86,15.76,18.55,15.76Zm7.62-5.33h-.08V9.1H24.24v8.06h2v-4.8a2.62,2.62,0,0,1,2.67-1.58h.18V9h-.54A2.5,2.5,0,0,0,26.17,10.43ZM43.93,5.79H40.21V17.17h2.14v-4h1.57c2.43,0,4.19-1.31,4.19-3.75S46.35,5.79,43.93,5.79Zm0,5.76H42.35V7.47h1.59a1.75,1.75,0,0,1,1.94,2,1.82,1.82,0,0,1-1.94,2.08Zm29.29-.19c0-.61.66-.85,1.38-.85a8.21,8.21,0,0,1,2.24.36V9.2a8.25,8.25,0,0,0-2.39-.31c-1.94,0-3.29.92-3.29,2.41,0,2.9,4,2.16,4,3.57,0,.7-.63.88-1.54.88a8.83,8.83,0,0,1-2.43-.51v1.65a6.74,6.74,0,0,0,2.36.48c1.88,0,3.68-.56,3.68-2.58,0-2.79-4-2.07-4-3.43Zm-7.29,0c0-.61.66-.85,1.38-.85a8.21,8.21,0,0,1,2.24.36V9.2a8.25,8.25,0,0,0-2.39-.31c-1.94,0-3.29.92-3.29,2.41,0,2.9,4,2.16,4,3.57,0,.7-.63.88-1.54.88a8.83,8.83,0,0,1-2.43-.51v1.65a6.74,6.74,0,0,0,2.36.48c1.88,0,3.68-.56,3.68-2.58,0-2.79-4-2.07-4-3.43Zm12.62,5.81h2V15.09h-2ZM59,8.9a3.88,3.88,0,0,0-3.92,3.84q0,.18,0,.35c0,3,1.58,4.28,4.14,4.28a9.61,9.61,0,0,0,3-.46V15.25a6.87,6.87,0,0,1-2.41.49c-1.49,0-2.49-.41-2.54-2.17h5.11a9.7,9.7,0,0,0,.07-1.19A3.22,3.22,0,0,0,59,8.9Zm-1.75,3.34c.12-1.12.73-1.83,1.73-1.83s1.39.85,1.39,1.83Zm26.55.81c0-1.88,1-2.53,2.26-2.53a6.68,6.68,0,0,1,2.25.46V9.29A6.57,6.57,0,0,0,86,8.9a4,4,0,0,0-4.31,4.26c0,2.5,1.19,4.21,4.19,4.21a7.45,7.45,0,0,0,2.5-.46V15.25a6.14,6.14,0,0,1-2.25.49c-1.33,0-2.36-.61-2.36-2.68ZM51.3,10.43h-.07V9.1H49.37v8.06h2v-4.8A2.62,2.62,0,0,1,54,10.78h.2V9H53.7A2.5,2.5,0,0,0,51.3,10.43Z"/></svg>